<svg width="212" height="148" viewBox="0 0 212 148" fill="none" xmlns="http://www.w3.org/2000/svg">
<path d="M135.226 25.733C133.599 21.8602 131.268 18.3819 128.3 15.3946C125.335 12.4073 121.879 10.061 118.03 8.42359C114.277 6.82517 110.301 5.97048 106.204 5.87598V5.93145C123.645 6.33619 137.71 20.7405 137.71 38.393C137.71 56.2981 123.239 70.8627 105.453 70.8627C88.0208 70.8627 73.7765 56.8714 73.2153 39.4572H73.1602C73.2867 43.4717 74.1317 47.3671 75.6808 51.0529C77.3075 54.9257 79.6384 58.404 82.606 61.3913C85.5737 64.3786 89.0291 66.7228 92.8764 68.3623C96.8605 70.0594 101.092 70.9182 105.453 70.9182C109.815 70.9182 114.046 70.0573 118.03 68.3623C121.877 66.7249 125.333 64.3786 128.3 61.3913C131.268 58.404 133.597 54.9257 135.226 51.0529C136.912 47.0425 137.765 42.7835 137.765 38.393C137.765 34.0024 136.912 29.7434 135.226 25.733Z" fill="white"/>
<path d="M105.453 72.9726C100.816 72.9726 96.3178 72.0584 92.0806 70.2545C87.9904 68.5123 84.3165 66.0201 81.1611 62.8438C78.0077 59.6696 75.5299 55.9714 73.7991 51.8521C72.1561 47.9403 71.254 43.7922 71.1193 39.5229C71.1009 38.9661 71.3091 38.4278 71.6928 38.0272C72.0765 37.6286 72.6072 37.4026 73.1583 37.4026H73.2134C74.3155 37.4026 75.2177 38.282 75.2524 39.3914C75.783 55.8872 89.0476 68.8081 105.449 68.8081C122.11 68.8081 135.665 55.164 135.665 38.3929C135.665 22.004 122.427 8.36396 106.153 7.98593C105.045 7.96127 104.159 7.04907 104.159 5.9314V5.87593C104.159 5.32326 104.38 4.7932 104.774 4.40695C105.166 4.02069 105.698 3.81113 106.247 3.82141C110.603 3.92002 114.832 4.83223 118.822 6.52927C122.912 8.27151 126.586 10.7636 129.742 13.9399C132.895 17.1142 135.373 20.8123 137.104 24.9317C138.896 29.1969 139.804 33.725 139.804 38.3929C139.804 43.0608 138.896 47.589 137.104 51.8542C135.373 55.9714 132.897 59.6696 129.742 62.8459C126.588 66.0201 122.914 68.5143 118.822 70.2566C114.589 72.0584 110.091 72.9726 105.453 72.9726Z" fill="white"/>
<path d="M81.7686 38.3209C81.7686 41.3329 82.3605 44.2708 83.5259 47.0486C84.6648 49.7605 86.3057 52.2095 88.408 54.336L88.4366 54.3072C79.4867 45.2509 79.6153 30.8466 88.8264 21.9464C98.1682 12.9188 113.372 12.9188 122.714 21.9464L122.716 21.9484L122.744 21.9197L122.742 21.9176C120.45 19.7028 117.778 17.9894 114.803 16.8224C111.927 15.6944 108.888 15.1233 105.771 15.1233C102.654 15.1233 99.6153 15.6944 96.7395 16.8224C93.7616 17.9894 91.0899 19.7028 88.7999 21.9176C86.5099 24.1324 84.7342 26.7129 83.5279 29.5913C82.3605 32.371 81.7686 35.309 81.7686 38.3209Z" fill="white"/>
<path d="M88.4091 56.3906C87.8845 56.3906 87.362 56.1892 86.962 55.7865C84.674 53.4732 82.884 50.8023 81.6451 47.8499C80.3715 44.8154 79.7266 41.6103 79.7266 38.321C79.7266 35.0317 80.3715 31.8267 81.6451 28.7921C82.9616 25.6569 84.8924 22.8443 87.3845 20.4364C89.8704 18.0346 92.7687 16.1732 95.9976 14.9076C99.1102 13.6873 102.398 13.0688 105.77 13.0688C109.142 13.0688 112.43 13.6873 115.542 14.9076C118.771 16.1732 121.67 18.0326 124.156 20.4364C124.166 20.4446 124.174 20.4549 124.182 20.4631C124.558 20.8391 124.774 21.3486 124.784 21.8828C124.794 22.456 124.566 23.0086 124.154 23.4052L124.125 23.4339C123.329 24.2003 122.076 24.19 121.29 23.4195C112.726 15.1542 98.7999 15.1562 90.2399 23.4278C86.1925 27.3416 83.927 32.5478 83.8637 38.0868C83.8004 43.6196 85.9394 48.8669 89.8847 52.8588C90.2705 53.2492 90.4848 53.7793 90.4787 54.3278C90.4725 54.8764 90.248 55.4023 89.8562 55.7845L89.8276 55.8133C89.4316 56.1995 88.9193 56.3906 88.4091 56.3906Z" fill="white"/>
<path d="M105.465 54.9441C114.543 54.9441 121.903 47.5357 121.903 38.397C121.903 29.2583 114.543 21.8499 105.465 21.8499C96.3861 21.8499 89.0264 29.2583 89.0264 38.397C89.0264 47.5357 96.3861 54.9441 105.465 54.9441Z" fill="white"/>
<path d="M20.4836 119.813C22.0267 120.189 23.2636 120.516 24.1908 120.797C25.118 121.079 26.4151 121.58 28.0838 122.296C29.7525 123.015 31.0633 123.811 32.0233 124.686C32.9798 125.56 33.8451 126.762 34.6175 128.292C35.3899 129.823 35.7752 131.525 35.7752 133.398C35.7752 134.398 35.6823 135.398 35.4965 136.396C35.3107 137.396 34.8325 138.566 34.0601 139.908C33.286 141.253 32.283 142.423 31.0479 143.421C29.811 144.421 28.0666 145.28 25.8113 145.998C23.556 146.716 20.9136 147.076 17.8876 147.076C13.5628 147.076 9.76271 146.156 6.48899 144.313C3.21356 142.472 1.57757 140.301 1.57757 137.803L3.24625 134.149C3.30646 134.462 3.39935 134.899 3.52494 135.46C3.6488 136.022 4.0651 137.006 4.77558 138.411C5.48434 139.816 6.33589 141.051 7.32334 142.112C8.31079 143.174 9.74723 144.141 11.6327 145.016C13.5164 145.89 15.6014 146.327 17.8876 146.327C21.5329 146.327 24.4678 145.563 26.6921 144.031C28.9164 142.501 30.0277 140.799 30.0277 138.926C30.0277 136.74 29.1779 135.038 27.48 133.82C25.7803 132.603 23.0468 131.464 19.2776 130.402C14.7051 129.09 11.0908 127.965 8.43464 127.03C5.40693 125.906 3.15163 124.141 1.66874 121.736C0.185845 119.333 -0.309598 116.6 0.185845 113.539C1.35908 105.357 7.01196 101.267 17.1462 101.267C18.999 101.267 20.7605 101.408 22.4292 101.688C24.0979 101.97 25.7029 102.391 27.2477 102.952C28.7908 103.514 30.0277 104.344 30.955 105.436C31.8822 106.529 32.345 107.825 32.345 109.324C32.345 111.073 31.9424 112.291 31.1408 112.977C31.0169 112.666 30.8466 112.275 30.6316 111.807C30.4148 111.339 29.8901 110.48 29.0558 109.23C28.2214 107.981 27.3252 106.874 26.3687 105.905C25.4105 104.938 24.0979 104.064 22.4292 103.283C20.7605 102.502 19.0007 102.112 17.1462 102.112C14.1804 102.112 11.6 102.768 9.40833 104.079C7.21496 105.39 6.11914 107.016 6.11914 108.95C6.11914 111.386 6.89154 113.4 8.43636 114.993C9.97947 116.586 12.885 117.913 17.1479 118.975L20.4836 119.813Z" fill="white"/>
<path d="M79.0561 107.448C83.2571 111.757 85.3575 117.222 85.3575 123.842C85.3575 130.525 83.2571 136.085 79.0561 140.517C74.8534 144.826 69.3864 146.981 62.6531 146.981C56.0421 146.981 50.6059 144.826 46.3413 140.517C42.2006 136.083 40.1328 130.525 40.1328 123.842C40.1328 117.224 42.2023 111.757 46.3413 107.448C50.6042 103.013 56.0558 100.796 62.6996 100.796C69.3399 100.796 74.7932 103.013 79.0561 107.448ZM72.199 137.519C73.3723 133.772 73.9899 129.245 74.0518 123.935C74.112 118.314 73.4807 113.616 72.1526 109.835C70.8228 106.056 68.9546 103.544 66.5462 102.293C65.4349 101.669 64.2289 101.356 62.9318 101.356H62.8389C59.2556 101.356 56.4739 103.309 54.499 107.211C52.5206 111.115 51.5022 116.626 51.4403 123.747C51.4403 124.87 51.4867 126.167 51.5796 127.635C51.6725 129.103 51.9185 131.163 52.3211 133.819C52.7219 136.474 53.5098 138.91 54.6848 141.126C55.858 143.343 57.3099 144.889 59.0405 145.764C60.0899 146.325 61.2322 146.607 62.4691 146.607C67.0399 146.605 70.2826 143.578 72.199 137.519Z" fill="white"/>
<path d="M128.73 107.448C132.931 111.757 135.031 117.222 135.031 123.842C135.031 130.525 132.931 136.085 128.73 140.517C124.527 144.826 119.06 146.981 112.327 146.981C105.716 146.981 100.28 144.826 96.0152 140.517C91.8744 136.083 89.8066 130.525 89.8066 123.842C89.8066 117.224 91.8761 111.757 96.0152 107.448C100.278 103.013 105.73 100.796 112.372 100.796C119.014 100.796 124.467 103.013 128.73 107.448ZM121.871 137.519C123.044 133.772 123.662 129.245 123.724 123.935C123.784 118.314 123.153 113.616 121.825 109.835C120.495 106.056 118.627 103.544 116.218 102.293C115.107 101.669 113.901 101.356 112.604 101.356H112.511C108.928 101.356 106.146 103.309 104.169 107.211C102.191 111.115 101.173 116.626 101.111 123.747C101.111 124.87 101.157 126.167 101.25 127.635C101.343 129.103 101.589 131.163 101.991 133.819C102.392 136.474 103.18 138.91 104.355 141.126C105.528 143.343 106.98 144.889 108.711 145.764C109.76 146.325 110.903 146.607 112.139 146.607C116.712 146.605 119.956 143.578 121.871 137.519Z" fill="white"/>
<path d="M163.39 101.17C165.737 101.17 167.713 101.812 169.322 103.09C170.927 104.371 171.732 105.759 171.732 107.258C171.732 108.569 171.298 109.475 170.435 109.974C170.373 109.851 170.295 109.646 170.202 109.366C170.11 109.084 169.846 108.616 169.415 107.961C168.981 107.305 168.487 106.712 167.932 106.18C167.376 105.65 166.602 105.182 165.614 104.775C164.625 104.37 163.543 104.166 162.372 104.166C159.592 104.166 157.135 105.43 155.004 107.961C152.872 110.489 151.806 112.661 151.806 114.471V141.92C151.806 144.232 152.361 145.762 153.474 146.511V146.793H152.733C149.581 146.793 146.941 146.044 144.809 144.545C142.678 143.046 141.611 141.11 141.611 138.736L141.518 106.698C141.518 104.389 140.963 102.857 139.85 102.107V101.826H140.684C148.036 101.826 151.713 104.481 151.713 109.788C153.196 107.041 154.785 104.917 156.485 103.418C158.184 101.92 160.484 101.17 163.39 101.17Z" fill="white"/>
<path d="M210.099 141.547C210.099 143.858 210.655 145.388 211.768 146.137V146.419H211.026C203.798 146.419 200.091 144.11 199.905 139.486L199.812 138.549C199.688 138.736 199.471 139.016 199.163 139.392C198.854 139.768 198.19 140.439 197.171 141.406C196.151 142.374 195.1 143.218 194.02 143.934C192.938 144.652 191.548 145.325 189.85 145.948C188.15 146.572 186.468 146.885 184.799 146.885C180.968 146.885 177.816 145.871 175.346 143.84C172.874 141.811 171.639 139.048 171.639 135.549C171.639 132.676 172.272 130.242 173.538 128.242C174.804 126.244 176.395 124.823 178.31 123.98C180.225 123.136 182.356 122.387 184.704 121.731C187.052 121.076 189.26 120.577 191.331 120.232C193.4 119.89 195.238 119.281 196.844 118.406C198.449 117.532 199.47 116.408 199.903 115.035V110.538C199.903 108.978 199.162 107.462 197.679 105.994C196.196 104.528 193.879 103.792 190.729 103.792C187.022 103.792 183.963 104.792 181.554 106.79C179.144 108.79 177.63 111.005 177.013 113.442L175.716 113.254C176.395 109.882 178.465 107.041 181.924 104.73C185.384 102.42 188.936 101.264 192.581 101.264C197.832 101.264 202.065 102.779 205.279 105.808C208.491 108.837 210.097 112.287 210.097 116.16V141.547H210.099ZM199.814 135.832C199.874 125.467 199.906 119.377 199.906 117.565C199.289 118.565 198.176 119.424 196.571 120.142C194.964 120.86 193.264 121.516 191.474 122.109C189.681 122.703 187.92 123.42 186.191 124.263C184.46 125.107 183.024 126.404 181.881 128.151C180.737 129.901 180.166 132.055 180.166 134.615C180.166 137.177 180.939 139.284 182.483 140.938C184.026 142.593 185.974 143.421 188.322 143.421C190.423 143.421 192.6 142.719 194.856 141.314C197.109 139.907 198.761 138.081 199.814 135.832Z" fill="white"/>
</svg>
